<svg xmlns="http://www.w3.org/2000/svg" viewBox="0 0 1744 1744" fill="none" shape-rendering="auto"><metadata xmlns:rdf="http://www.w3.org/1999/02/22-rdf-syntax-ns#" xmlns:xsi="http://www.w3.org/2001/XMLSchema-instance" xmlns:dc="http://purl.org/dc/elements/1.1/" xmlns:dcterms="http://purl.org/dc/terms/"><rdf:RDF><rdf:Description><dc:title>Notionists</dc:title><dc:creator>Zoish</dc:creator><dc:source xsi:type="dcterms:URI">https://heyzoish.gumroad.com/l/notionists</dc:source><dcterms:license xsi:type="dcterms:URI">https://creativecommons.org/publicdomain/zero/1.0/</dcterms:license><dc:rights>Remix of „Notionists” (https://heyzoish.gumroad.com/l/notionists) by „Zoish”, licensed under „CC0 1.0” (https://creativecommons.org/publicdomain/zero/1.0/)</dc:rights></rdf:Description></rdf:RDF></metadata><mask id="viewboxMask"><rect width="1744" height="1744" rx="0" ry="0" x="0" y="0" fill="#fff" /></mask><g mask="url(#viewboxMask)"><g transform="translate(531 487)"><path d="M554 727.7c-99.2 297-363.8 388.6-503.7 19.8-19.3-50.7 31-69.5 66.2-91.9 24.1-15.3 36.8-28.5 35.3-42.2-7-64.4-36.9-243.8-36.9-243.8l-3-5.8s.7-1.6-2.2 1.2c-3 3-9.9 34.2-37 34.2-24.5 0-49.2-10.9-61-86.3C7.2 285.6 9.6 214 40 201c12.5-5.3 24-7.2 35.2-.8 11.3 6.4-13-22 112-126C268.4 6.4 396.7-3.5 448.5 8 500.3 19.5 552 44.8 574.9 98.5c27.8 65-25.9 114.3-14 262.5-2.2 53.6.8 171.2-146.6 210.6-28 7.5-19.3 48.4 22.7 58.4 67 21 117 72.3 117 97.9" fill="#fff"/><path fill-rule="evenodd" clip-rule="evenodd" d="m554 266.2.1-1.4c4.1-36.4 8.2-71.7 27.1-103.4 6.5 4.4 5.7 10 3.7 15.2-19.9 51.2-18 104.4-16.2 157.6l.4 14c2.1 66.4-14.5 126.8-58.7 177.5-15.4 17.6-35.8 29.8-56.5 40.3-21.4 11-25.9 20.1-19.2 43.6l.8 2.6c1.4 3.9 2.8 7.9-1 11.8-4.5 4.6-9.5 3.3-14.8 1.8l-.6-.1a406.4 406.4 0 0 1-137-68.3c-6-4.4-10.8-10.3-15.5-16.1l-.3-.4c-2.5-3-3-7.8.5-10.4 3.3-2.5 5.8-.5 8.7 1.8l1 .9a145.5 145.5 0 0 0 76.3 31.7c13.4 1.4 26.6.9 40 .4 7.4-.3 14.8-.6 22.3-.5 10.2 0 18.7-4.7 26.7-9.2l2.8-1.6c27.8-15.5 54.3-32.8 72.2-60.7 16.1-25 25.9-52.2 31.6-80.9 7.2-36.1 6.6-72.7 6-109.8-.3-12-.5-24.2-.5-36.4ZM50.6 190.8c21.9-1.7 34 11.2 44.3 26.3a140.4 140.4 0 0 1 22.4 61.5c.5 3.7 1 7.6-1.2 11.3-4.5.6-4.9-3-5-5.6-.5-20.7-9.7-38.7-18.9-56.1-6.6-12.5-16.2-24.6-31.4-27.6-17.2-3.5-33 12-40.8 32.2-14.5 37.6-12 74.6 1.4 111 5.8 15.9 13.1 32.1 27.8 43.2 14.8 11.3 32.7 9.3 43.6-5.7l2-2.5c2-2.6 4-5.1 5-8 2.1-5.8 5.4-11.2 11.3-10.4 6.8 1 8 8.3 8.7 14a3661 3661 0 0 0 22 156.7l5.9 38.8c2.6 17.1 5.6 41.7 3.6 52.1a28 28 0 0 0-.3 2.2c-.4 2.8-.6 5-4.2 5.5-4.9.8-7-2-7.7-6.4-2.3-17-3-23.6-4-49.6-.9-25.2-5.6-50-10.4-74.9l-5-27c-5.2-30.8-10.3-62-10.8-97l-2 3c-7.6 11.3-13.7 20.5-24.5 24a40.5 40.5 0 0 1-46.1-12.5 127.8 127.8 0 0 1-28.8-55.8c-8.4-34-9.9-67.1.9-100.6 5.2-16.1 23.7-44.7 42.2-42Zm34.6 127.5c4.4 3.2 8.4 6 12-5.4-1.1-42.2-14.7-69.2-35.8-70.3 11.2 14.6 22 28.8 23 48.5a32.3 32.3 0 0 1-10.7-8.8c-2-2.2-4-4.4-6.5-6l-3-2.4c-4.8-3.6-9.7-7.4-17.8-4.5 3.8 5.8 9 10 14.3 14 6 4.7 12 9.3 15.6 16.5-10.6 7.7-15.2 17.7-9.7 29.9 4.8 10.5 11.9 19.2 25.9 19.8-.6-6.3-4.7-10.9-8.8-15.4-5-5.4-9.7-10.6-7.5-18.6 3.2-1.5 6.2.7 9 2.7Z" fill="#000"/></g><g transform="translate(178 1057)"><path d="M1313.4 698 9.7 694.7S43.1 485 106 365.7c17-32.3 81-128.7 141.8-189.6 40.8-41 87.7-56 89-62 2.2-9.7-11-41.4-8.8-48.5 8.1-25.5 9.5.8 42.1-31.8 18.3-18.2 1.4-29.6 21.6-43.2 29.8-20 60-8.7 87-7.6 18 .7 12.4 50.3 27.3 62.5 40.3 32.9 91.8 54 128 63.6 46.1 12 61.6-2.6 85.4-12.3 23.8-9.6 38.5 12.2 68.9-33.2 14.2-21.2-11-42.6 8.2-54C826.6-8.3 872.2-7.7 891.1 2c28.9 14.8 16.3 41.6 16.3 41.6s35.7 11.6 43 22c7.2 10 5 44 5 44s-2.8-13.7 63.4 23.5c84.2 47.4 179.2 187.2 223 296 46.6 115.8 71.6 269 71.6 269Z" fill="#fff"/><path d="M710.4 698a41.5 41.5 0 0 1-3.3-13.8c0-9.2-3.2-14.3-13.5-13.7-6.4.4-13-3.3-13-9.6-.2-8.2 7.8-6 12.7-5.7 9.3.7 12.2-4.1 12.4-12.1 0-4.6-.8-11 5.6-10.8 5.4 0 11.2 4 11.4 10 .4 9.8 4.5 14 14.1 13.6 8.7-.3 8.8 6 8.9 12.2-2.3 3.5-5.8 3.8-9.1 3.8-9 0-13.8 4-12.9 13 .7 6.6-3.7 9-8.5 12.5-1.6.5-3.2.7-4.8.6ZM472.4 698c-1.4-4.5-2-9.3-1.9-14 .8-10-3.1-14.5-13.3-13-4.7.7-8.2-1.6-11.2-4.9-1.8-1.9-3.6-3.8-2.6-6.7 1-2.7 3.5-3.8 6.2-3.5 13.3 1.7 21.4-1.9 19.7-17.4-.3-3.3 2-7 6.4-6 5.1 1 9.3 4.3 9 9.4-.6 11.3 4 15.2 15 14.2 9.7-.9 8.8 6.6 9.4 13.4-3 1-5.4 2.4-7.7 2.3-10.9-.6-16 3.7-14 15 .9 5.3-3.7 7.2-7.7 10.5-2.4.6-4.8.8-7.3.7ZM948.4 698c-1.8-3.2-3.7-6.5-3.7-9.7 0-11.6-1.8-20.2-17-17.6a9.5 9.5 0 0 1-10.6-9c0-6.9 6.4-5.8 10.8-5.6 10.1.6 15.3-3.2 14.6-14-.3-3.6 1.2-7.2 4-9.6 7.6 2 14.2 4.8 14.5 14.3.1 6.4 3.1 9.5 9.5 9.2 9-.6 12.4 3.8 11.4 12.3-2.5 3.2-6.2 2.5-9.5 2.9-7.3.8-12.3 3.5-11.1 12 1 6.4-2 10.4-8 14a11 11 0 0 1-4.9.8ZM236.9 698a27.7 27.7 0 0 1-3.3-11.2c-.2-11-3-17.7-16.3-16.2-5.2.6-11.6-3.5-11.3-9.8.3-6.5 7-4.6 11.3-4.8 12.7-.6 12.7-.5 16.3-21.8 7.7-2.3 12.6 1.2 13.1 8.7.7 10 5.4 13.7 14.7 13 6.7-.6 10.8 1.9 11 9 .2 8.2-6.5 7.3-11 6.7-10.5-1.5-12.5 3.9-11.8 12.5.4 4.9-.1 9.4-5.4 13.1-2.4.7-4.9 1-7.3.8ZM1186.3 698c-1.7-2.8-3.7-5.6-3.5-8.3.6-13-2.4-21.2-18-19.8-4.4.5-10.8-3.4-10.4-9.3.5-6.9 7.2-4.8 11.3-4.4 11 1.2 16-2.7 14.8-14a8.8 8.8 0 0 1 4.5-9.3c6 1.5 12 3.9 11.6 12-.3 8 3 11.8 11.2 11.3 4-.2 8 .4 8.1 5.8.2 5.7-2.7 8.9-8.5 8.6-8.5-.4-11.4 4.1-10.7 11.8.5 6.3-3.2 10.3-8 14.9-.5.7-1.8.7-2.4.7ZM611.4 540.8c3.4.4 6.7-.1 8.2 1.3 3.4 3.3 11.5 2.6 10.3 9.4-1 6.3-7.7 6.2-12.6 6-15-.5-14.2 11-15.4 21.5-8.3-.8-15.2-2-15.9-11.5-.6-7.4-5.5-9.2-11.4-9.2-7.5-.1-10.7-4-11-11-.2-7.6 5.5-7.7 10.5-7.9 7.8-.3 10.6-4.3 9.5-11.6-1.3-9.4 5-12.5 12-12.6 8-.1 6.6 7.2 7.2 12.4.6 5.5-1.7 12.7 8.6 13.2ZM821.6 521.5c3.9-4.9 9-5 13.3-6.4 1.2.9 2.3 1.2 2.5 1.9a55.4 55.4 0 0 0 22.3 26.3c3 1.9 7.4 2.7 8 7.8-2.7 7-9.3 6-15 6.3-7.5.4-12.3 2.3-10.8 11.4.7 4 .7 10-5 9.9-5.5 0-12.7-1.6-12.8-9.3-.2-9-4.2-11.7-12.6-11.6-10.7.2-9.9-8-10.7-16.4 11.6-1.5 24.7-1.8 20.8-19.9ZM1059.2 533c.1-3.5.3-6 .2-8.6-.5-7.4 5.7-8 10.2-8.9 6-1.1 6.5 4.2 6.7 8.5.5 10 1.3 18.6 15.6 17 5.2-.7 12.4 4 12.5 10 .1 6.1-7.1 6.1-12 6.3-8.6.2-13.8 3.2-13.7 12.7.1 4.2-.6 9.7-6.2 9.2-5.3-.5-11.9-2.6-12.2-9.2-.4-9.4-4.8-12-13.5-12.6-8.2-.5-8.2-8-9.1-13.4 5.8-8 18.8 2.9 21.5-11ZM1094 200.6c-2.4 2-4.8 1.9-7.2 1.6-6.6-.7-9.6 2-8.3 8.4 1 4.7-1 7.1-5.6 7.8-5.5 1-5.8-3.2-5.8-6.5.1-6.9-1.6-11-10-9.9-4 .6-8.4-1.9-9-5.6-.7-5 4.4-5.1 8.1-5.8 5-.8 9.2-2.1 9.4-8.2 0-2.8.9-6.5 4.8-6 3.6.6 7.9 1.9 7.7 6.8-.2 5.7 2.3 7.4 8 7.1 6.8-.4 8.2 4.4 8 10.3ZM953.5 221c-10.6 2.8-8.7-5.2-9.4-9.8-1.3-8.9-3.3-15.4-14.7-14.5-5.4.4-12-3-12.6-8.6-.7-7.7 7-7 12.2-7.7 7.6-1 12.8-4 13.4-12.5.2-4.2.8-10 6.4-9.1 5.1.7 12 2.5 12 9.5-.1 9 3.6 11.5 12.2 11.6 9.1.1 9.5 7.7 9.9 15.3-2.3.7-4.3 1.9-6.2 1.8-10.8-.7-17.6 2.2-15.5 14.9.8 5-1.7 8-7.7 9.1ZM1283.8 554.4c3.1 6.4-.4 9.7-4.9 9.6-15.5-.5-25.6 3.9-20.6 22.4-10.2.3-16-3.3-16.7-10.9-.8-8.3-4.9-11.3-12.1-11.5-10-.3-10.6-6.3-9.5-13.7 2.8-2.8 6.3-3 9.7-3.1 7.2-.2 10-4.2 9-10.8-1.5-10.4 6.1-13.2 13-13.1 7.8 0 6.1 8 6 13-.2 8.3 2 13.4 11.5 12.3 5.5-.6 9.8 2 14.6 5.8ZM381 540.8c2.9 1.3 5.7 3 8.3 4.8 6.4 5 4 8.5-2 11-2.5.8-5 1.2-7.6 1-11.6-1-16.8 3.7-14.6 15.6.3 1.5-.5 3.2-.8 5.4-8.7.3-14.3-2.7-15.4-11.5-.8-7-5-9.4-11.4-9-7.8.4-10.4-3.9-10.7-11-.4-8 5.3-7.7 10.3-7.7 8.5 0 11.6-4 10.5-12-1-8.3 3.8-12 11-12.4 8.2-.4 6.4 6.9 6 11.3-1.2 12.1 3.8 16.6 16.3 14.5ZM90.2 409.2c-2.4-13 7.3-11.7 12.9-14.1 3.4 1.2 4.1 3.3 4.3 5.4 1.2 12.4 3.2 23.4 20.3 21.2 3.5-.5 8.6 3 8.2 8.2-.5 5.3-5.3 6.7-9.5 6.6-11.3-.3-18.1 3.3-17 16 .3 3.2-1.4 6.3-5.1 6-5.6-.3-11-3.7-11.1-8.7-.5-11-6.8-13.5-15.7-14.3-5.6-.5-6.4-4.8-6.7-9.2-.5-5.4 3.5-6.2 7.4-6.7 6-.7 12.5-.4 12-10.4ZM550.4 294c-.5-10.2 7-11.6 13-11.5 7 0 6 7.2 5.9 12-.4 8.7 1.9 14.1 12 13.1 4-.4 7.2 2.2 10.6 3.9 2.8 1.3 5.4 3 5 6.6a6 6 0 0 1-6.4 5.3c-15.3-.7-25.5 3.8-20.8 22.2-9.4 0-15.4-2.7-16.5-9.7-1.4-8.6-5.7-12-13.6-12-6.8 0-9-4-9.2-9.7-.1-6.5 4.6-7.7 9.6-7.4 8.8.6 13.2-2.3 10.4-12.8ZM1045.4 303.2c9.9.8 15.2-2.3 14-12.1-1-7.6 3.7-11.6 10-12.1 8.4-.7 6.8 6.8 7 11.9.2 8.8 3.5 13.9 13 12.7 4.3-.5 7.2 1.7 10.2 4 2.4 1.9 5.5 3.2 4.8 6.9-.9 4-4.4 5.4-7.8 5.2-12-1-20 2-18.4 16.4.3 3-1.8 6.3-5.3 5.9-5.6-.7-11.9-3-12.3-9-.8-9.9-5.4-13.4-14.6-13.3-5.5.1-6.4-4.6-7.5-8.8-1.3-5.1 1.5-6.9 7-7.7ZM92 555.3c-5.2-10.6-1.7-15.5 8.7-15.5 9 0 12.1-3.5 9.6-12.7s5.7-10.7 11.5-11.7c6.7-1.2 7.2 5.2 7 9.6-.5 10.6 2 17.1 14.6 16.7 4.4-.2 10.6 3 10.7 9 .1 7.4-6.7 6.3-11.5 7-10.7 1.3-10.8 1.2-14.5 20.8-6.3 2.2-13.7-1.6-13.7-5.4-.2-15.7-11.9-14.7-22.3-17.8ZM872.2 273.3c3.8-4.7 8.5-5.1 14-6.2.7.9 1.3 1.8 1.8 2.9 6.2 16.7 6.3 16.5 21.2 24.5 3.4 1.8 9.2 3 8 8.5-1.1 6-6.7 5.7-11.4 5.6-8.2-.1-15.9-.2-14.6 11.7.4 4 1.3 9.8-4.6 10.2-5 .3-11.4-2.4-11.9-7.7-1-11.2-7.3-14-17-14.5-5.5-.2-6-5.3-6.5-9.6-.5-5 3-7.2 7.2-6.7 15.3 2 13.7-8.3 13.8-18.7ZM939 415.5c5.5-6.1.5-15.5 8.9-20.4 6.3 3 14 4.9 13.4 15-.4 7.2 4.9 8.3 10.4 8 7.1-.5 10.3 3.6 10.8 9.8.6 8-6 6.9-10.7 6.9-7.5 0-11.5 3.1-10.4 10.7 1.4 10.2-5.3 11.9-12.3 13.5a10.2 10.2 0 0 1-4.5-8c-1-10.5-3-19.1-17.3-17.6-4.3.4-10.4-3.8-10-9.6.3-6.2 6.4-5.2 11-5.8a64 64 0 0 0 10.6-2.5ZM415.2 216c-6.9-.7-12.4-3.8-12.3-9.7.1-7.3 7.5-6.7 12.7-7.5 6.8-1 12.5-2.6 12.3-11.4-.1-4 .2-9.4 6.1-9.2 5.2.2 10.6 2.3 10.2 9-.4 8.7 4.4 11.2 11.7 11 10.4 0 12.7 6.4 12.7 15-6.3 6.5-15.3-.2-21.6 4.5-2.6 4.3-.3 8.5 0 12.6.5 7-4.2 8.7-9.4 9.7-7 1.3-7.7-4.1-7.6-8.8.2-9.7-1.3-17.3-14.8-15.1ZM710.2 395.5c8.1 2.3 13.8 5.7 13.2 15-.4 7.3 5.4 7.8 10.8 7.5 7.4-.4 11.6 3.3 11.7 10.3.2 8-6.6 6.5-11.3 6.5-8 0-12.2 3-11.2 11.4 1.3 9.4-4.5 11.6-11.6 12.3a7 7 0 0 1-4-6.6c-.5-10.9-2.8-19.1-16.9-18.2-4.5.3-10.6-3.8-10.6-9.3 0-7.1 6.7-6.6 11.7-6.3 9.9.6 14.2-3.7 13.6-13.6-.3-3.4.2-6.9 4.6-9ZM491 435.8c-3.2 2-4.2 4.5-3.6 7 2.2 10.3-2.6 15-12.2 16.3-.8-.4-2-.6-2.2-1.2a66.4 66.4 0 0 0-22.9-25.6c-3-2-7.1-3.8-6.7-8.5a5.6 5.6 0 0 1 6.1-5.3c15 2 20.7-5.3 20.9-19.1 0-1 1.4-2 2.3-3.2 7.2.6 12.4 3.3 12.3 11.4-.1 7.2 4 10.2 10.3 10.1 8-.1 14.1 2.6 13.5 11.1-.7 9-9.1 4.9-14.3 6.2-.8.3-1.6.3-3.4.8ZM267.3 434.4c-11.7-.4-19.5 1.5-17.8 15.3 1.1 8.4-5.7 9-11.6 9.7-4.1-3.2-4.1-7.8-4.4-11.9-.6-9.2-4-14-14.3-13.4-6 .2-12.5-3.7-12.6-10.1 0-7 7.2-6 12-6 7.8 0 12-2.8 12.5-11 .2-4.4-.3-10.8 6.4-10.5 5.2.2 9.7 4 9.4 10.1-.5 10.3 5.4 12.1 13.9 11.5 4.4-.3 8.6.4 10.3 5.5 1.4 4.2 3 8.4-3.8 10.8ZM346.7 323.6c-3.7-3.5-7.7-3.6-11.5-3.6-7.1 0-8-5-8.3-10.4-.4-6.3 4.1-6.9 8.5-6.7 9 .5 13.8-2.6 12.3-12.5-1.2-8 4.8-11 10.6-11.5 8.2-1 6.6 6.5 6.3 11-.7 11 1.6 17.1 14.9 14.5 5.9-1.2 12.6 3.1 12.8 9.6.3 7.2-7 5.7-11.8 6-12.2.6-12.2.5-17.4 22-11.4-.3-14.3-8.4-16.4-18.4ZM1210.6 434.8c-8.9-.4-14.6 1.6-13.8 11.2.5 7.3-4.2 10.5-10.3 12.8-1-.7-2.8-1.4-2.8-2.2-1.1-13.5-4.2-24.6-21.6-24.2-3.2 0-9.5-3.8-7.9-9.8 1.4-5 6.7-4.9 10.8-4.5 9.8.7 15.8-1.9 14.7-13.2-.4-3.9.3-8.7 5.2-8.6 5.2 0 11.2 2.8 11.2 8.2.2 11 5.2 14.3 15 13.7 6.4-.4 7.6 4.4 8.4 9.2 1 6.2-3.5 6.8-9 7.4ZM270 185.2c3.7 8.8.7 12.5-7.4 11.9-9.8-.7-14.2 3.3-13 13.3 1.1 9.4-5.1 11.2-14 12-1.5-13.8-10.7-28.7 2.6-40 8.8-7.6 21.2-3.7 31.9 2.8ZM15.8 662.3c2.6-7.6 8.2-6.6 12.8-5.5 5.9 1.4 5.2 6.7 4.7 12-7 1.7-14.4 6-17.5-6.5ZM154.2 314c-3.2 8-8.5 5.7-13.5 5-2-5.7.4-8.8 4.7-10.2 3.8-1.3 7.4-.5 8.8 5.2Z" fill="#000"/><path d="M1307 698c-9.4-38.5-16.9-77.2-25.6-115.7-6.3-27.8-14-55-22.4-82.1-9.5-30.7-19.5-61.1-33-90.5-9.6-20.7-19.4-41.1-29.5-61.5a673 673 0 0 0-57.7-92.4 470.2 470.2 0 0 0-60.5-70 342.9 342.9 0 0 0-83-57.4c-3-1.5-6.6-2.3-9.2-4.3-17-12.7-33.7-6.3-44.8 12.9-30.8 53.2-78.6 77.6-137.2 85.4a19 19 0 0 1-6.4 0c-5.6-1.2-13.6-1.2-13-9.1.7-6.9 8-4.5 12.7-5.1 43.7-5.8 84-19.6 113.4-54.3 12.4-14.8 21.6-32.4 31.3-49.3 10.2-17.9 2.4-45-23.7-50.5-11.8-2.5-19.5-6.3-16.2-21.4 2-9.6-4.8-18.9-13.2-23-10.4-5-21.7-9.1-34.5-5.6-11.7 3.3-24.2 4.1-36.3 6-7.1 1-12.2 5.8-18 9.4-4.4 2.8-4.4 6.4-2.5 11 7 17.4 1 39.8-13.9 51-14.7 11.2-30.4 20.2-50 18.4-4.9-.5-8.9 1.2-12.8 4.4-14 11.8-30.4 14.5-48.7 14.3-38.8-.4-74.2-12.6-109.2-27.3-7.8-3.3-13.6-12.5-26.5-7.5 27 34.9 67 48.4 105.6 67.6a26 26 0 0 1-24.8 3c-51.4-17.5-91.9-47.6-117.2-97-8.4-16.5-14.9-33-18.1-51-2.3-12.6-5.7-13.8-17.6-8.4-13.2 6-24.9 14.3-35.7 23.6-12.5 10.8-20 24-18.1 41.5 1 8.4 0 17 .2 25.6a47.3 47.3 0 0 0 35.2 46 37 37 0 0 1 18.4 10.8c-14.6 6.6-40.5-1.2-53-15.9C377.8 90 391.1 21 437.3-3.2l5-2.8a39.9 39.9 0 0 0-54 19A80.5 80.5 0 0 1 349 56c-15.3 7.7-19.8 28.7-7.8 39.4 23.4 20.8 43 45.8 69.9 62.6 15.4 9.6 30.1 21 46.7 28 15.8 6.5 33.6 8.4 50.6 11.8 5 1 10.2.8 13.3 5.6.3 3.4-1.7 5.6-4.4 5.5-32.1-1.5-63.4-4.4-92-23a437.5 437.5 0 0 1-69-54.1c-11-11-23.1-6.1-34 0-39 22-72.5 50.9-102.9 83.7a615.2 615.2 0 0 0-87.4 123 870.6 870.6 0 0 0-50.5 108A1198.4 1198.4 0 0 0 47 548.6a558.2 558.2 0 0 0-20.6 102.1c-1.3 15.2-7.3 29.7-7.9 46.2-5.5 1-10.8 1-17.1 1 4.6-32.9 9.9-66 16.2-98.8 3.7-19.1 9.2-37.9 13.7-56.8 5.6-23.6 13.4-46.5 21.2-69.4a831.5 831.5 0 0 1 84-179c16.9-27 36-52.4 57-76 36.7-41.1 76.3-78 126-103 6.4-3.3 9.3-7 4.1-15.1C314.4 85 317.8 54 339 44.4c16.6-7.6 26.6-22 34.3-37.8a56.1 56.1 0 0 1 51.4-33.3c19.6-.5 39.2-.7 58.8-1 9 0 14.1 1.6 10.1 12.7C491.1-8 492-.5 499 4.5a8.7 8.7 0 0 1 4 6.1c4.4 31 27.1 45.6 52.1 57.7 19.8 9.6 39.6 20.3 60.5 26.3 21.8 6.3 44.5 12.1 67.7 10.5a46 46 0 0 0 26.9-10.8c6.3-5.4 14.2-4.9 21.6-6.4 17-3.4 32.5-9.8 45-22 11.2-11.2 12-22 3.3-35.3-7.8-12-3.3-34 8.5-40.9 3.5-2 8.7-2.8 9.8 1.6 3 11.4 9.8 6.6 15.9 4.8a159 159 0 0 1 55.3-8.2A58 58 0 0 1 906 3.5c7.8 6.9 9.7 15.6 9.8 25.3 0 7.6 2.4 11.9 11 13.9 24.7 5.7 33.8 17.7 34.2 43.1 0 5.3 1.4 8.3 6.3 11 34.6 18.7 70.4 35.4 101.6 60 29.3 23 53 51.1 75.5 80.4A719.4 719.4 0 0 1 1245 414c18.2 46.5 33.7 94 46.4 142.4 12 46 16 93.5 27.1 140.6-3.2.9-6.7.9-11.4.9Z" fill="#000"/><path d="M1122.7 698c-9.3-36.4-12.3-73.8-22.2-110-7.8-28.4-14-57.4-24.2-85-7.2-19.4-14-39-23.5-57.7-12.7-25-23.3-51.2-34.7-77-1.4-3-2.8-6.3 1.4-8.8 4.4-2.7 7.6-.6 9.9 2.7 5 7.3 10.2 14.6 14.2 22.5 16 31.2 32 62.7 43 96 7.5 22.8 15.6 45.5 21.2 69 3.9 16.5 8.2 33 12 49.4 7 32.2 11.9 65 14.5 97.9-3.4 1-7 1-11.6 1ZM219 698a451 451 0 0 1 4.4-86.5c3.7-29 4.4-58.3 11-87 3.9-17 9-33.6 13-50.4 7.4-32.1 18.1-63.5 34.6-92.4 2.4-4 4.8-8 7.4-12 2.3-3.3 4.1-8.7 9.5-6.2 5.7 2.8 3.2 8.2 1.8 12.5a320 320 0 0 1-10 26c-18 40-33 81.2-40.6 124-7.3 42-15.8 84.3-14 127.6.7 14-1.6 28-2.6 43.2-4.5 1.2-9 1.2-14.4 1.2ZM629.3 367.8c-1.5-9.8 2.8-16.7 6.6-23.8 11.4-21.4 8.4-30-11.6-42.7-17.7-11.3-35.3-23-44.2-44-5.8-14-4.4-28.3-6.2-42.4-1-7.2 2.4-16 12.3-16.7 9.4-.6 20.9-3.5 25.6 8.4 3.4 8.6 2.1 17-6.2 24-15 12.8-13.9 19.7 3.7 29.1 13.8 7.4 28.5 13.3 40.5 23.9 23.8 21 26 56 4.5 79.2-6.8 7.3-7.8 15.3-6 24.6.9 4.3 2.7 10.2-3.1 12.3-5.3 2-6.5-4-9.2-7-6.3-6.8-7.1-15-6.7-24.9ZM804.3 405.5c1.2 3.4 4.6 5.2 3 8.6-20.6.3-34.9-24.4-26-44 5-11.2 13.4-20.6 15.8-33.3 3-16.5 0-25.2-15-32.3-27-12.9-39.8-33-35.3-63.4 1.4-9.3 1.4-17.6-11.8-20.7-9-2.2-11.2-12.2-9.2-21 2-8.5 8.8-13.9 17-12.5 7.6 1.2 17.4 3.4 16.7 15.3-.2 3-.4 6.1 2 8.4 11 11 8.6 24.1 6 37.1-2.2 11.1 0 20.3 9.8 26.8 6.4 4.2 12.5 8.9 19.2 12.6a49 49 0 0 1 13 78.4c-14.3 16-15.7 25.7-5.2 40ZM851 92c16.8-7 17.8-16.8 17.5-33.6 0-5-2.4-10 .8-14.8 11.1 2.3 17.6 16.3 14 29.9a48 48 0 0 1-48.7 35.4 41.9 41.9 0 0 0-31.2 13c-7.7 7-16.5 10.5-27 4.4 18.8-9.4 31.1-30.8 55.7-28.2 6.8.7 12-3.5 18.8-6Z" fill="#000"/></g><g transform="translate(266 207)"><path d="M202 925.6c-22 4.7-38.8 1.3-53.3-10.7 1.7-6.4 7.8-8.5 12.3-12.2 4-3.4 10-4.7 13.5-12.9-15 9.2-28.4 16.5-43.2 20.8-28.5 8.3-56.1 9-81-10.6a49.6 49.6 0 0 1-8.8-9.2c-6.4-8.5-4.9-13.4 5.3-17.1 12.6-4.6 26-6.1 38.6-11.9 35.2-15.8 52.7-43.6 61.7-79.2 15.8-62.2 15.8-126.1 22-189.5 5.6-58.3 4.2-117 15.3-175.2 13.3-70 38-134.6 78.2-192.6a331.1 331.1 0 0 1 124.8-109.6 243.8 243.8 0 0 1 138.1-25c37.3 4 70.8 16.4 101.1 37.8 11.6 8.2 20.4 4 30.7-2 25.9-15.6 52.7-26.6 84.1-17 14.3 4.3 25.5 11.8 28.9 26 4.4 18.4 6.2 37.4-12.4 50.9-1.6 1.1-2.7 3-5.3 5.6 18.5 3.2 34 10.2 48.6 19.4 26.3 16.8 40.6 42 51.9 70 16.3 40.7 17.9 75.2 14.4 116.8-2 24-14.7 56.2-22.8 79.5-1.4 4-4 6.2-8.6 6.4-.8-1.1-2.3-2.3-2.2-3 5.2-23-11-30.4-27-38.6a109.1 109.1 0 0 1-56.5-62.3c-.7-1.8-2.6-3.2-3.8-4.7-7.8.8-9.3 8.9-14.6 11.7-20 10.6-39.7 19.5-64 10.3-12.1-4.7-24.8-7.6-35.6-15.3-7.1-5-10 1.3-13 5.5a80.5 80.5 0 0 1-42.6 30.6c-25.2 7.5-45.7-2.3-65.5-15.9l-11.1-7.3c-5.4 8-6.8 16.8-9.5 25-11.7 34.4-39.2 55.5-76.6 51-8.2-.9-12 1.1-14 8.5-4 15-15.8 19-29.2 20.3-4.8.7-9.5-1.2-12.4-5a89.1 89.1 0 0 0-21.9-17.5c-24-14.6-38.4-2.6-49.4 17.2-17.1 31-16.5 64.7-12.4 99 2.6 22.2 11 41.3 23.2 59.5 17.2 25.8 40.2 22.9 61.4 11.8 5.1-2.6 7-8 8.7-13.5 1.4-4.5 4.7-8.7 10-8.7 6.5 0 7 6.3 7.6 10.4 3.9 28 13.6 55.3 11.9 84.4-1 17 3.2 33.6.8 51.5C394 822.2 377 848 358 872.8a186.7 186.7 0 0 1-82.1 60.4C261 939 245 943.5 228.6 940c-3.8-.8-8.8-.6-10.2-6.1-1.5-5.8 2.2-8.7 6.2-11.3 3.5-2.3 7.2-4.1 9.6-8.4-10.7 3.8-19.6 11.2-32.2 11.4Z" fill="#000"/><path d="M419 185.5c-7.7 1.6-12.2 6.8-16.5 13-8 11.7-5.4 24.7-5.3 37.2.2 13.5 7.3 23.2 19.2 29.3 3.1 1.6 8 1 7.8 7.5-4.9 1.4-10.7 1.6-14.2-1.4-12.1-10.4-20.8-4.2-29.6 4.5-3.3 3.3-6.8 6.4-10.2 9.5-27.8 25.8-54.2 52.6-68.2 89-3.7 9.8-.2 15.2 7.6 19.2 4.2-1.6 3.8-5 4.9-7.7a209.8 209.8 0 0 1 34.9-58.7c2.7-3.3 5.9-6.2 9.5-3.3 4.3 3.3.8 6.6-2 9.4-13.5 14.4-22 32-31.5 49.1-4.1 7.5-2.9 15.8-2 23.8.4 4 3.7 7.2 7.7 7.4 3.7.4 4.6-2.8 5.6-5.8a271.5 271.5 0 0 1 38.5-74 283.6 283.6 0 0 1 112.8-94c14.3-6.7 30.5-9.6 43.4-20.1-19.7-14.9-19.7-14.9-41.6-10-17.2 3.6-34.6 6.1-51 12.8 19.3-25 50.4-18.5 76-27-2.3-5.6-6.2-6.5-10-7-19.7-2.8-39.4-5.6-59.2-8-8.7-1-17 .6-26.6 5.3ZM612.9 208.6c21.6 4.7 44.3.4 65.7 6.7 12.4 3.7 25 3.3 37.4 4 8.8.5 17.7-1.9 19.3-13-7.2-7.4-20.6 3-25.8-10.8 7.8-1.4 14.7-1.6 21-4 24.4-9.2 40-25.3 31-53.3-5.6-17.5-32.7-28.4-55-23.4-37.6 8.3-65.4 32.2-94 56.1l7 14.6c14.6-4.8 27.3-13.5 41.4-18.9 13.9-5.3 26.9-15.9 44.6-11.5-3 6.3-8.3 8-12.7 9.3-17.6 5.4-33.9 13.6-50.7 20.7-11.7 4.9-24 9.2-29.2 23.5ZM567.9 211.8c10.3-2 20.8-2.3 30.2-8.7 5.6-3.7 11.3-7 10.6-14-.8-8.2-7-13-14.8-13.5-19.6-1.5-39 .1-57.8 6.7-7.4 2.6-13 6.4-10.9 15.7 2.2 9.1 8.1 13.7 17.3 13.9 7.7.2 15.4 0 25.4-.1ZM813.2 282.7c2.3.6 3.4 4 9.2 2.4-9-27.4-39.3-29.4-57-48.5 24.4 2.5 40.6 16.8 58.8 27.7-4.3-24-26.4-30.3-42.8-39.6-21.8-12.5-26.2-15.6-57.5 3.5a357.8 357.8 0 0 1 89.3 54.5Z" fill="#fff"/></g><g transform="translate(791 871)"><path d="M197.7 98.9c-6-3.3-11.2-6-16.2-8.9a25 25 0 0 0-24-2 158.4 158.4 0 0 1-49 12.9c-12.6.8-25.3-8.2-25.7-18.7-.2-3-.8-6.2 3-7.4 2.8-1 5.2-.8 8 1.7 15.6 14.3 17.8 14.5 36.2 4.6 7.1-3.7 14-7.5 22-9.8 16.9-4.9 31.4-2 44.3 10 4.6 4.2 9.9 6.4 16.2 2.5 2.9-1.8 6.8-2.9 9.2.5 3 4.2-.7 7-3.4 9.7-5.5 5.6-11.2 10.7-20.6 4.9Z" fill="#000"/></g><g transform="translate(653 805)"></g><g transform="translate(901 668)"><path d="M98.7 204.4c-29.8 25.1-65.6 24.4-87-.9-5-6-7.7-13-10.7-20-1.2-2.7-1.5-6.1 2.2-7.7 3.2-1.3 5.8 0 7.4 3 2.3 4 4.5 8.2 6.7 12.3 17 32.6 61.6 20 75.6.5 4-5.6 3-11.2-.4-16.7-8.4-13.8-17.7-27-24.8-41.5-7.9-15.9-15.4-32.4-11.5-51.2 1-4.9 1.8-9.9 6.6-12.4 3.5 2.1 3 5 2.8 7.3-3.2 31.8 13.6 56.2 30.8 79.9 14.5 19.9 15.8 28.6 2.3 47.4Z" fill="#000"/></g><g transform="translate(610 680)"><path d="M407.4 122.5c13 .3 25.4 1.1 37.6 2.5 3 .4 5 3.3 5 6.7 0 3.3-1.7 5.6-4.7 7-11.2 4.8-22 8.2-33.7.2-6.5-4.5-9-8.7-4.2-16.4ZM247.6 117c7 0 7.8 3.8 7 8.5-2 10.2-20 22.4-30.4 20.5-5.9-1-10.5-4-10.7-10.5-.2-6.7 4.8-8.2 10.3-8.4 9-.3 15.8-5.2 23.8-10ZM215.1 76.6c5-12 9-29.4 24.1-22.5 20.7 9.4 13.9 30.7 9.7 47.4-1.6 6.3-14.5 15.9-18.3 14.3-16.3-6.8-19.2-21.7-15.5-39.2ZM442 113.4c-8.6 7.5-17 7.6-22.2-1.5-9-16-8.6-32.8 3.3-47.2 2.5-3 13.8-3.6 16.3-1 14 15 14.6 31.8 2.6 49.7Z" fill="#000"/></g><g transform="translate(610 680)"><path d="M474.1 17C499.7 31.2 503.5 68 495 84.7c-8 15.4-19.5 28.5-32.9 39.9a104.9 104.9 0 0 1-38.8 22.8c-7 2-13 .1-18.1-3.3-18.1-12-33.2-27.5-47.5-43.7-3-3.6-5.3-7.7-6.6-12.3-4.3-14.2-14.9-19.2-28.3-13a50.9 50.9 0 0 0-22.3 18.4 150.8 150.8 0 0 1-53.6 49.7c-14.2 8.1-23.5 6.4-37-3.6-13-9.7-24.9-20.8-35.4-33-8.4-9.8-16.8-19.4-15.7-33.5.3-4.6-2.5-7-6.5-8.3a14 14 0 0 0-3.7-.7c-21.3-1-41.3-9-62.6-10.3-16-1-30.9-8.7-46.5-12.6-4.5-1.2-8.7-3.8-13.2-4.6-6.5-1.2-7.8-5.5-9-11.6A65.5 65.5 0 0 1 52 29c18.3 7.3 38 8.5 57 12.8 15.5 3.6 31.5 5 47.7 10.1 4.5-17.5 11.5-32.7 29.6-40 19.9-8 33.2 3.2 48 15 15.2-8.1 31.4-17.3 49.7-9.8 18.4 7.4 22.8 24.7 26.2 42.7 11.6.4 22.8-3.5 34-.7 3.9-7 4.4-14.3 6.3-21.2a37.2 37.2 0 0 1 57.7-21.8c9.8 9 19 9.6 31.5 2.9a38.5 38.5 0 0 1 34.3-2.2Z" fill="#000"/><path d="M193 63.5c-1-.3 1 0-.2.4-6.6 2 50.7 52.8 55.8 48.5 3-2.5-49.5-46.3-55.7-49ZM213.3 39.7c-.9-.3 1 0-.1.4-6.7 2 50.7 52.8 55.7 48.5 3-2.5-49.5-46.3-55.6-49ZM388.2 63.5c-.8-.3 1 0 0 .4-6.7 2 50.6 52.8 55.7 48.5 3-2.5-49.5-46.3-55.7-49ZM408.6 39.7c-.9-.3 1 0-.1.4-6.6 2 50.7 52.8 55.7 48.5 3-2.5-49.5-46.3-55.6-49Z" fill="#fff"/></g><g transform="translate(774 657)"><path d="M131.2 43.2c-5.6 16.8-6.6 15.4-23 11.6-26.2-6-52.7-19.2-80.3-4.3-2 1.1-5 1-7.6.8-3.6-.2-8.2 1.3-10.1-3.3-2.1-5 1.5-8.3 5.3-10.3C35.2 27.7 53 13.4 77.9 16c12.8 1.3 26-2.8 39.3-2.4 18.8.7 22.4 5.7 16 23.9l-2 5.8ZM298.7 21.8c9.6 6.6 12.5 16.8 18.3 25a7 7 0 0 1-.6 9.4c-2.4 2.7-5.4 2.8-8.1 1.2-19.1-11-38.9-6.4-58-1.2-10.2 2.7-14.6-.8-17.2-9.2-1.7-5.7-2.9-11.5-3.6-17.4-1.3-9.8 6.9-11.9 13-12.2 18.5-.9 37.4-4.5 56.2 4.4Z" fill="#000"/></g><g transform="translate(0 559)"></g></g></svg>